<svg width="55" height="55" viewBox="0 0 55 55" fill="none" xmlns="http://www.w3.org/2000/svg">
<circle cx="27.5" cy="27.5" r="27.5" fill="#FFF5D9"/>
<path d="M32.6452 37.6094H19.6798C18.9859 37.6087 18.3206 37.3327 17.8299 36.842C17.3392 36.3513 17.0632 35.686 17.0625 34.992V27.2543C17.0632 26.5604 17.3392 25.8951 17.8299 25.4044C18.3206 24.9137 18.9859 24.6377 19.6798 24.637H32.6452C33.3391 24.6377 34.0044 24.9137 34.4951 25.4044C34.9858 25.8951 35.2618 26.5604 35.2625 27.2543V34.992C35.2618 35.686 34.9858 36.3513 34.4951 36.842C34.0044 37.3327 33.3391 37.6087 32.6452 37.6094V37.6094ZM19.6798 26.2776C19.4209 26.2779 19.1726 26.3809 18.9895 26.564C18.8064 26.7471 18.7034 26.9954 18.7031 27.2543V34.992C18.7034 35.251 18.8064 35.4993 18.9895 35.6824C19.1726 35.8655 19.4209 35.9685 19.6798 35.9688H32.6452C32.9041 35.9685 33.1524 35.8655 33.3355 35.6824C33.5186 35.4993 33.6216 35.251 33.6219 34.992V27.2543C33.6216 26.9954 33.5186 26.7471 33.3355 26.564C33.1524 26.3809 32.9041 26.2779 32.6452 26.2776H19.6798Z" fill="#FFBB38"/>
<path d="M36.3212 33.1917H34.4421C34.2246 33.1917 34.0159 33.1053 33.8621 32.9515C33.7082 32.7976 33.6218 32.589 33.6218 32.3714C33.6218 32.1538 33.7082 31.9452 33.8621 31.7914C34.0159 31.6375 34.2246 31.5511 34.4421 31.5511H36.3212C36.5799 31.5505 36.8279 31.4474 37.0108 31.2643C37.1937 31.0812 37.2965 30.8331 37.2968 30.5744V22.8366C37.2967 22.5778 37.1939 22.3295 37.011 22.1463C36.8281 21.9632 36.58 21.86 36.3212 21.8594H23.3559C23.0969 21.8597 22.8487 21.9627 22.6655 22.1458C22.4824 22.3289 22.3794 22.5771 22.3792 22.8361V25.4567C22.3792 25.6743 22.2927 25.8829 22.1389 26.0368C21.985 26.1906 21.7764 26.277 21.5588 26.277C21.3413 26.277 21.1326 26.1906 20.9788 26.0368C20.825 25.8829 20.7385 25.6743 20.7385 25.4567V22.8366C20.7391 22.1426 21.015 21.4772 21.5057 20.9863C21.9964 20.4955 22.6618 20.2195 23.3559 20.2188H36.3212C37.015 20.2198 37.6801 20.496 38.1706 20.9867C38.6611 21.4775 38.9369 22.1428 38.9374 22.8366V30.5744C38.9367 31.2681 38.6609 31.9333 38.1704 32.4239C37.68 32.9146 37.0149 33.1907 36.3212 33.1917V33.1917Z" fill="#FFBB38"/>
<path d="M34.4422 31.7463H17.8828C17.6653 31.7463 17.4566 31.6599 17.3028 31.506C17.1489 31.3522 17.0625 31.1436 17.0625 30.926V28.1708C17.0625 27.9533 17.1489 27.7446 17.3028 27.5908C17.4566 27.437 17.6653 27.3505 17.8828 27.3505H34.4422C34.6597 27.3505 34.8684 27.437 35.0222 27.5908C35.1761 27.7446 35.2625 27.9533 35.2625 28.1708V30.926C35.2625 31.1436 35.1761 31.3522 35.0222 31.506C34.8684 31.6599 34.6597 31.7463 34.4422 31.7463ZM18.7031 30.1057H33.6219V28.9911H18.7031V30.1057Z" fill="#FFBB38"/>
</svg>
