<svg width="55" height="55" viewBox="0 0 55 55" fill="none" xmlns="http://www.w3.org/2000/svg">
<circle cx="27.5" cy="27.5" r="27.5" fill="#DCFAF8"/>
<path d="M28.0002 25.379C28.4963 25.379 28.9015 25.7831 28.9015 26.2792C28.9015 26.7319 29.2694 27.0988 29.7221 27.0988C30.1737 27.0988 30.5417 26.7319 30.5417 26.2792C30.5417 25.1671 29.8172 24.2287 28.8198 23.8856V23.4205C28.8198 22.9688 28.4529 22.5999 28.0002 22.5999C27.5465 22.5999 27.1796 22.9688 27.1796 23.4205V23.8856C26.1823 24.2287 25.4599 25.1671 25.4599 26.2792C25.4599 27.6817 26.5988 28.8206 28.0002 28.8206C28.4963 28.8206 28.9015 29.2257 28.9015 29.7218C28.9015 30.2189 28.4963 30.6231 28.0002 30.6231C27.5041 30.6231 27.1 30.2189 27.1 29.7218C27.1 29.2691 26.7321 28.9012 26.2794 28.9012C25.8257 28.9012 25.4599 29.2691 25.4599 29.7218C25.4599 30.8339 26.1823 31.7713 27.1796 32.1144V32.5795C27.1796 33.0332 27.5465 33.4011 28.0002 33.4011C28.4529 33.4011 28.8198 33.0332 28.8198 32.5795V32.1144C29.8172 31.7713 30.5417 30.8339 30.5417 29.7218C30.5417 28.3204 29.4017 27.1804 28.0002 27.1804C27.5041 27.1804 27.1 26.7763 27.1 26.2792C27.1 25.7831 27.5041 25.379 28.0002 25.379ZM34.8721 32.5547C35.2741 32.7666 35.7692 32.6126 35.98 32.2136C36.6621 30.9248 37.0218 29.4676 37.0218 28C37.0218 23.0267 32.9735 18.9795 28.0002 18.9795C23.0259 18.9795 18.9787 23.0267 18.9787 28C18.9787 32.9743 23.0259 37.0215 28.0002 37.0215C29.4461 37.0215 30.8827 36.6722 32.155 36.0097C32.557 35.802 32.7131 35.3049 32.5043 34.9039C32.2955 34.5039 31.8005 34.3447 31.3974 34.5545C30.3442 35.1044 29.2001 35.3824 28.0002 35.3824C23.9303 35.3824 20.6178 32.071 20.6178 28C20.6178 23.931 23.9303 20.6186 28.0002 20.6186C32.0702 20.6186 35.3826 23.931 35.3826 28C35.3826 29.202 35.0871 30.3936 34.531 31.4457C34.3181 31.8467 34.4711 32.3428 34.8721 32.5547V32.5547ZM28.0002 15.697C25.6242 15.697 23.3174 16.3771 21.3299 17.6617C20.9486 17.9077 20.84 18.4152 21.086 18.7955C21.333 19.1758 21.8384 19.2833 22.2208 19.0394C23.9406 17.9273 25.9415 17.3382 28.0002 17.3382C33.8799 17.3382 38.662 22.1214 38.662 28C38.662 33.8797 33.8799 38.6628 28.0002 38.6628C22.1206 38.6628 17.3375 33.8797 17.3375 28C17.3375 25.9609 17.9152 23.9775 19.0097 22.2671C19.2536 21.8847 19.142 21.3772 18.7596 21.1333C18.3782 20.8894 17.8707 21.001 17.6279 21.3824C16.3649 23.3574 15.6973 25.6477 15.6973 28C15.6973 34.785 21.2152 40.303 28.0002 40.303C34.7842 40.303 40.3032 34.785 40.3032 28C40.3032 21.217 34.7842 15.697 28.0002 15.697V15.697Z" fill="#16DBCC"/>
</svg>
