<svg width="15" height="15" viewBox="0 0 15 15" fill="none" xmlns="http://www.w3.org/2000/svg">
<g clipPath="url(#clip0_13_2749)">
<path d="M14.587 4.16318L13.2364 5.51376C13.0987 5.65146 12.876 5.65146 12.7383 5.51376L9.48637 2.26181C9.34867 2.12412 9.34867 1.90146 9.48637 1.76376L10.837 0.413178C11.3848 -0.134674 12.2754 -0.134674 12.8262 0.413178L14.587 2.17392C15.1377 2.72177 15.1377 3.6124 14.587 4.16318ZM8.32621 2.92392L0.632851 10.6173L0.011757 14.1768C-0.073204 14.6573 0.345741 15.0733 0.82621 14.9913L4.38578 14.3673L12.0791 6.67392C12.2168 6.53622 12.2168 6.31357 12.0791 6.17587L8.82719 2.92392C8.68656 2.78622 8.46391 2.78622 8.32621 2.92392V2.92392ZM3.63578 9.9581C3.47465 9.79697 3.47465 9.53915 3.63578 9.37802L8.1475 4.8663C8.30863 4.70517 8.56644 4.70517 8.72758 4.8663C8.88871 5.02744 8.88871 5.28525 8.72758 5.44638L4.21586 9.9581C4.05473 10.1192 3.79691 10.1192 3.63578 9.9581V9.9581ZM2.57816 12.422H3.98441V13.4854L2.09476 13.8165L1.18363 12.9054L1.51469 11.0157H2.57816V12.422Z" fill="white"/>
</g>
<defs>
<clipPath id="clip0_13_2749">
<rect width="15" height="15" fill="white"/>
</clipPath>
</defs>
</svg>
