<svg width="55" height="55" viewBox="0 0 55 55" fill="none" xmlns="http://www.w3.org/2000/svg">
<circle cx="27.5" cy="27.5" r="27.5" fill="#E7EDFF"/>
<path d="M36.995 22.3825C36.9812 20.8522 36.3642 19.3892 35.278 18.3112C34.1918 17.2332 32.7241 16.6273 31.1938 16.625H22.75C22.5403 16.6223 22.3366 16.695 22.176 16.8299C22.0154 16.9649 21.9086 17.153 21.875 17.36L18.8825 36.1288C18.8638 36.253 18.8721 36.3799 18.9069 36.5007C18.9416 36.6215 19.0019 36.7334 19.0838 36.8288C19.1651 36.9264 19.2667 37.0052 19.3816 37.0596C19.4964 37.114 19.6217 37.1427 19.7488 37.1438H23.3625L23.17 38.36C23.1496 38.4861 23.157 38.6151 23.1917 38.738C23.2264 38.8609 23.2876 38.9747 23.371 39.0714C23.4544 39.1681 23.558 39.2454 23.6744 39.2979C23.7908 39.3503 23.9173 39.3767 24.045 39.375H28.1138C28.3222 39.378 28.5249 39.3065 28.6853 39.1734C28.8458 39.0403 28.9534 38.8542 28.9888 38.6488L29.8638 33.3025H32.62C34.3452 33.2956 35.9974 32.606 37.2156 31.3845C38.4339 30.163 39.119 28.5089 39.1213 26.7838V26.5388C39.1204 25.7273 38.9273 24.9275 38.5577 24.2051C38.1881 23.4827 37.6526 22.8581 36.995 22.3825V22.3825ZM23.4938 18.375H31.1938C32.1118 18.3778 33.0018 18.6917 33.7184 19.2654C34.4351 19.839 34.9363 20.6387 35.14 21.5338C34.7615 21.445 34.3738 21.4009 33.985 21.4025H26.6875C26.4778 21.3998 26.2741 21.4725 26.1135 21.6074C25.9529 21.7424 25.8461 21.9305 25.8125 22.1375L25.2963 25.375C25.2592 25.6071 25.3157 25.8444 25.4536 26.0347C25.5914 26.2251 25.7992 26.3529 26.0313 26.39C26.2634 26.4271 26.5007 26.3706 26.691 26.2327C26.8814 26.0949 27.0092 25.8871 27.0463 25.655L27.4488 23.135H34.0025C34.422 23.1372 34.8374 23.2173 35.2275 23.3713C35.0612 24.741 34.4003 26.0029 33.3691 26.9197C32.3379 27.8365 31.0074 28.3451 29.6275 28.35H25.5675C25.3591 28.347 25.1564 28.4185 24.996 28.5516C24.8356 28.6848 24.728 28.8708 24.6925 29.0763L23.625 35.3938H20.7725L23.4938 18.375ZM37.3713 26.7838C37.369 28.0448 36.8682 29.2538 35.9782 30.1471C35.0882 31.0404 33.881 31.5456 32.62 31.5525H29.12C28.9116 31.5495 28.7089 31.621 28.5485 31.7541C28.3881 31.8873 28.2805 32.0733 28.245 32.2788L27.37 37.625H25.06L25.2525 36.4088L26.3025 30.1175H29.61C31.2435 30.1127 32.8296 29.5677 34.121 28.5675C35.4125 27.5672 36.3368 26.1679 36.75 24.5875C37.1562 25.1569 37.3734 25.8394 37.3713 26.5388V26.7838Z" fill="#396AFF"/>
</svg>
