<svg width="25" height="33" viewBox="0 0 25 33" fill="none" xmlns="http://www.w3.org/2000/svg">
<path fill-rule="evenodd" clip-rule="evenodd" d="M16.8749 0.916687C17.3869 0.9167 17.8898 1.05147 18.3332 1.30746C18.7766 1.56346 19.1448 1.93164 19.4008 2.37502H21.2499C22.0235 2.37502 22.7653 2.68231 23.3123 3.22929C23.8593 3.77627 24.1666 4.51814 24.1666 5.29169V22.7917C24.1666 24.7256 23.3984 26.5802 22.0309 27.9477C20.6635 29.3151 18.8088 30.0834 16.8749 30.0834H3.74992C2.97637 30.0834 2.2345 29.7761 1.68752 29.2291C1.14054 28.6821 0.833252 27.9402 0.833252 27.1667V5.29169C0.833252 4.51814 1.14054 3.77627 1.68752 3.22929C2.2345 2.68231 2.97637 2.37502 3.74992 2.37502H5.59909C5.85507 1.93164 6.22325 1.56346 6.66663 1.30746C7.11 1.05147 7.61295 0.9167 8.12492 0.916687H16.8749ZM16.6183 11.6777L10.432 17.8654L8.36846 15.8019C8.09342 15.5362 7.72504 15.3893 7.34267 15.3926C6.9603 15.3959 6.59453 15.5493 6.32414 15.8197C6.05376 16.09 5.90038 16.4558 5.89706 16.8382C5.89374 17.2206 6.04073 17.5889 6.30638 17.864L9.29596 20.855C9.44493 21.0041 9.62181 21.1223 9.81648 21.203C10.0112 21.2836 10.2198 21.3251 10.4305 21.3251C10.6413 21.3251 10.8499 21.2836 11.0446 21.203C11.2393 21.1223 11.4162 21.0041 11.5651 20.855L18.6818 13.7398C18.8172 13.6043 18.9246 13.4435 18.9978 13.2665C19.0711 13.0895 19.1087 12.8998 19.1087 12.7083C19.1086 12.5167 19.0708 12.327 18.9974 12.1501C18.9241 11.9732 18.8166 11.8124 18.6811 11.677C18.5456 11.5416 18.3847 11.4342 18.2077 11.361C18.0307 11.2877 17.8411 11.2501 17.6495 11.2501C17.458 11.2502 17.2683 11.288 17.0914 11.3614C16.9144 11.4347 16.7537 11.5422 16.6183 11.6777ZM16.1458 3.83335H8.85409C8.68342 3.8333 8.51815 3.8931 8.38704 4.00236C8.25593 4.11161 8.16731 4.2634 8.13659 4.43127L8.12492 4.56252V6.02085C8.12486 6.19152 8.18467 6.35679 8.29392 6.4879C8.40318 6.619 8.55496 6.70763 8.72284 6.73835L8.85409 6.75002H16.1458C16.3164 6.75008 16.4817 6.69027 16.6128 6.58101C16.7439 6.47176 16.8325 6.31998 16.8633 6.1521L16.8749 6.02085V4.56252C16.875 4.39186 16.8152 4.22658 16.7059 4.09548C16.5967 3.96437 16.4449 3.87574 16.277 3.84502L16.1458 3.83335Z" fill="#232323"/>
</svg>
